<svg width="169" height="52" viewBox="0 0 169 52" fill="none" xmlns="http://www.w3.org/2000/svg">
<g clip-path="url(#clip0_74_314)">
<path d="M10.7232 43.0289C10.7215 42.862 10.7025 42.6958 10.6665 42.5328C10.5562 41.4047 10.5026 40.2766 10.5026 39.0948C10.5836 34.9519 10.9967 30.8222 11.7379 26.7457C11.0995 24.5014 10.0373 22.401 8.60882 20.5586C6.71816 18.1654 4.63423 16.6803 2.35703 16.103C0.781477 15.6891 0 15.1961 0 14.6716C0.00326547 14.5282 0.0399597 14.3875 0.107141 14.2608C0.163861 14.0933 0.491576 14.0112 1.05247 14.0112L1.68269 14.068C3.36019 13.7143 5.07015 13.5384 6.78433 13.5435L15.5223 12.9747C15.7889 12.2829 16.1049 11.6113 16.4677 10.965C16.7828 10.3867 17.183 10.0865 17.5926 10.0865C17.8019 10.0843 18.0095 10.1246 18.2028 10.205C18.3961 10.2853 18.5712 10.4041 18.7176 10.5542C18.8613 10.6882 18.9767 10.8499 19.0568 11.0296C19.137 11.2093 19.1802 11.4033 19.1839 11.6001C19.1023 11.9525 19.0475 12.3106 19.0201 12.6714C24.1469 12.3554 29.2485 11.9572 34.2966 11.4327C34.4313 11.4347 34.5606 11.4854 34.6609 11.5756C34.7611 11.6658 34.8254 11.7893 34.8419 11.9233C34.8584 12.0573 34.826 12.1928 34.7507 12.3047C34.6754 12.4167 34.5622 12.4975 34.4321 12.5323C29.2413 13.496 23.9909 14.103 18.7176 14.3493L16.9088 21.0041C15.0434 27.956 14.0193 34.1811 13.8365 39.6794C13.8347 40.7265 13.8894 41.7729 14.0004 42.814L14.0287 43.6135C14.0656 44.1489 13.899 44.6784 13.5624 45.0955C13.448 45.2398 13.3048 45.3584 13.142 45.4439C12.9792 45.5293 12.8004 45.5796 12.617 45.5916C11.3545 45.5874 10.7232 44.7332 10.7232 43.0289ZM14.8921 14.5357C12.6422 14.6726 10.3934 14.7548 8.14561 14.7822L4.14056 14.9465C7.73281 16.9267 10.4113 20.0256 12.1759 24.2431C12.8027 20.9353 13.7115 17.6876 14.8921 14.5357Z" fill="#603813"/>
<path d="M20.0472 37.6223C19.2531 37.6223 18.5946 37.044 18.0715 35.8622C17.86 35.177 17.759 34.4623 17.7721 33.7451C17.7721 30.9011 18.7017 28.7397 20.6239 27.2546L21.0619 27.144C21.6385 27.144 21.9379 27.4189 21.9379 27.9687C21.7803 29.0242 21.5337 30.0644 21.2005 31.0781C20.7913 32.426 20.5603 33.822 20.5136 35.2302C20.5171 35.3922 20.5547 35.5516 20.6239 35.6979C20.7058 35.8622 21.0083 35.9444 21.5692 35.9444C22.6374 35.9444 23.9546 35.1196 25.5175 33.4417L26.5322 32.4937C26.5656 32.489 26.5996 32.4921 26.6316 32.5028C26.6636 32.5135 26.6926 32.5315 26.7165 32.5554C26.7403 32.5793 26.7583 32.6085 26.7689 32.6406C26.7796 32.6726 26.7827 32.7067 26.778 32.7402L25.7381 33.7577C23.5985 36.1782 21.7866 37.4706 20.334 37.635L20.0472 37.6223ZM20.2678 24.477L20.542 23.8165C20.6637 23.7422 20.7912 23.6778 20.9232 23.6238C20.9593 23.6249 20.9952 23.6181 21.0284 23.6039C21.0616 23.5897 21.0913 23.5685 21.1155 23.5416C21.1438 23.5132 21.2005 23.5132 21.2825 23.5132C21.9946 23.5132 22.3507 23.845 22.3507 24.5591C22.3507 25.1374 22.0356 25.466 21.336 25.5229C20.6239 25.5103 20.2678 25.1785 20.2678 24.4643V24.477Z" fill="#603813"/>
<path d="M27.1783 39.2875C26.6876 38.8874 26.296 38.3787 26.0342 37.8015C25.7723 37.2242 25.6473 36.5939 25.6689 35.9601C25.6528 33.3222 26.458 30.745 27.9724 28.588C28.6593 27.5705 29.5101 27.0775 30.4932 27.0775C31.6465 27.0775 32.22 27.6811 32.22 28.8913C32.1836 29.5065 32.016 30.1067 31.7285 30.6514C30.988 32.2314 30.0836 33.0182 29.0122 33.0182L28.4639 32.9361C28.4237 33.0219 28.4053 33.1163 28.4104 33.211C28.1319 33.9782 27.9828 34.7866 27.9692 35.603C27.9741 35.9436 28.0015 36.2835 28.0511 36.6205C28.0683 36.8214 28.1419 37.0133 28.2635 37.1738C28.3852 37.3344 28.5497 37.457 28.7381 37.5274C29.1028 37.7189 29.5053 37.8268 29.9166 37.8434C30.739 37.8434 31.6182 37.3758 32.5226 36.4404C33.7228 35.26 34.7403 33.9063 35.5413 32.4241C35.5925 32.3749 35.6596 32.3458 35.7304 32.342C36.0077 32.342 36.1432 32.4241 36.1432 32.6169L36.1148 32.7812C32.6864 37.3758 30.1088 39.6572 28.382 39.6572C27.9541 39.6498 27.5369 39.5217 27.1783 39.2875ZM30.8808 29.9373C31.2905 29.2768 31.511 28.8092 31.511 28.5627C31.5231 28.4865 31.5175 28.4085 31.4946 28.3348C31.4718 28.2611 31.4323 28.1937 31.3793 28.1378C31.3263 28.0819 31.2611 28.0389 31.1889 28.0123C31.1166 27.9857 31.0393 27.9762 30.9627 27.9844C30.7422 27.9844 30.4964 28.1772 30.2506 28.5627C29.9434 29.0474 29.6687 29.552 29.4282 30.0731C29.1403 30.6604 28.9193 31.2784 28.7696 31.9154C29.5353 31.6184 30.2506 30.9548 30.8808 29.9373Z" fill="#603813"/>
<path d="M35.2422 39.5909C35.1286 39.4897 35.0362 39.367 34.9702 39.2297C34.9042 39.0925 34.866 38.9436 34.8577 38.7914C34.8352 38.5636 34.8257 38.3347 34.8294 38.1057C34.8906 36.4938 35.0463 34.8868 35.2957 33.2931C35.3547 33.1248 35.3825 32.947 35.3777 32.7686C35.7978 29.4991 36.6486 27.4367 37.9301 26.5814L38.2294 26.4993C38.7525 26.4993 39.0266 27.0207 39.0266 28.0792C38.9587 28.7357 38.8535 29.3877 38.7115 30.0321C38.6296 30.3354 38.4374 31.1602 38.1349 32.5063C39.3166 30.168 40.6306 28.5185 42.1116 27.5578C42.2648 27.3779 42.4817 27.2646 42.7166 27.2419C42.7949 27.2308 42.8747 27.2381 42.9497 27.2633C43.0247 27.2884 43.0928 27.3307 43.1487 27.3868C43.2046 27.4429 43.2468 27.5112 43.2719 27.5864C43.297 27.6616 43.3043 27.7416 43.2932 27.8201C43.206 28.4308 43.0861 29.0362 42.934 29.6339C42.7406 30.4739 42.6214 31.3293 42.5779 32.1903C42.5779 32.5063 42.578 32.797 42.6063 33.1004C42.6045 33.3644 42.6813 33.623 42.8269 33.843C42.8791 33.9187 42.9488 33.9806 43.03 34.0235C43.1112 34.0664 43.2015 34.089 43.2932 34.0895L43.8951 34.0357C44.3331 33.8967 45.0201 33.4037 45.9244 32.4937C46.0883 32.3294 46.1986 32.2472 46.2553 32.2472C46.3908 32.2472 46.4727 32.3578 46.4727 32.5632C46.4727 32.6169 46.4475 32.6706 46.3624 32.7275C46.0473 32.974 45.7322 33.2489 45.3761 33.5807C45.0137 33.9339 44.6261 34.2602 44.2165 34.5571C43.8509 34.8565 43.3992 35.0304 42.9277 35.0532C41.5003 35.0532 40.7881 33.9504 40.7881 31.7795C40.7933 30.8053 40.9606 29.8388 41.2828 28.9198C40.1942 30.0107 39.3518 31.3232 38.8124 32.7686L37.5803 35.6283L37.0856 38.902C36.8933 39.6446 36.5373 40.0017 35.9606 40.0017C35.8182 39.9901 35.68 39.9473 35.5559 39.8763C35.4318 39.8053 35.3247 39.7079 35.2422 39.5909Z" fill="#603813"/>
<path d="M45.8264 39.5909C45.5988 39.3855 45.4617 39.098 45.4451 38.7914C45.4226 38.5636 45.4131 38.3347 45.4168 38.1057C45.478 36.4938 45.6337 34.8868 45.8831 33.2931C45.9406 33.1244 45.9683 32.9469 45.9651 32.7686C46.3852 29.4991 47.235 27.4367 48.5143 26.5814L48.8294 26.4993C49.3494 26.4993 49.6267 27.0207 49.6267 28.0792C49.5587 28.7357 49.4535 29.3877 49.3115 30.0321C49.2296 30.3354 49.0374 31.1602 48.7349 32.5063C49.9134 30.168 51.2306 28.5185 52.7116 27.5578C52.8648 27.3779 53.0817 27.2646 53.3166 27.2419C53.3954 27.2304 53.4758 27.2377 53.5512 27.2632C53.6267 27.2887 53.6951 27.3317 53.7509 27.3886C53.8067 27.4455 53.8484 27.5148 53.8726 27.5908C53.8968 27.6669 53.9028 27.7476 53.8901 27.8264C53.8039 28.437 53.685 29.0425 53.534 29.6402C53.339 30.4799 53.2199 31.3355 53.1779 32.1966C53.1779 32.5126 53.1779 32.8033 53.2063 33.1067C53.2036 33.3704 53.2793 33.6289 53.4237 33.8493C53.4763 33.9246 53.5461 33.9862 53.6272 34.0291C53.7083 34.072 53.7984 34.0948 53.8901 34.0958L54.4951 34.0421C54.9331 33.903 55.62 33.4101 56.5244 32.5C56.6883 32.3357 56.7986 32.2535 56.8395 32.2535C56.9782 32.2535 57.0601 32.3641 57.0601 32.5695C57.0573 32.6041 57.0457 32.6374 57.0264 32.6661C57.0071 32.6949 56.9807 32.7182 56.9498 32.7338C56.6347 32.9803 56.3196 33.2552 55.9635 33.587C55.5954 33.9453 55.2015 34.2759 54.785 34.5761C54.4185 34.8761 53.9656 35.05 53.493 35.0722C52.0688 35.0722 51.3566 33.9694 51.3566 31.7985C51.3624 30.8246 51.5285 29.8584 51.8482 28.9387C50.7615 30.0306 49.9203 31.3429 49.3809 32.7876L48.1456 35.6473L47.6824 38.902C47.4902 39.6446 47.1341 40.0017 46.5575 40.0017C46.413 39.9915 46.2725 39.9493 46.1461 39.8783C46.0197 39.8073 45.9106 39.7092 45.8264 39.5909Z" fill="#603813"/>
<path d="M63.3246 37.3063C62.9713 36.9653 62.6917 36.5551 62.5031 36.1012C62.3145 35.6473 62.2208 35.1594 62.228 34.6678L62.2564 34.3107L60.7753 36.2067C59.9813 37.3348 59.1998 37.913 58.5255 37.913C58.2092 37.9137 57.8959 37.8508 57.6042 37.7282C57.3125 37.6055 57.0483 37.4256 56.827 37.1989C56.3039 36.7312 56.0298 36.0139 56.0298 34.9869C56.0298 33.6408 56.4426 32.2378 57.2083 30.7526C57.9092 29.3631 59.006 28.2138 60.3594 27.4505C60.6294 27.3046 60.9319 27.2296 61.2386 27.2324C62.2249 27.2324 62.937 28.0035 63.4034 29.5708C63.6302 28.9659 63.9491 28.3999 64.3487 27.8929C64.8718 27.2324 65.4201 26.9291 65.9684 26.9291C66.5167 26.9291 66.7624 27.1756 66.7624 27.6717C66.6024 28.443 66.3057 29.1794 65.8864 29.8457C65.0807 31.2141 64.6371 32.7663 64.5976 34.3549C64.5976 35.6474 64.9128 36.2793 65.4484 36.2793C65.8864 36.2793 66.3938 36.0044 66.983 35.4262C68.1615 34.3265 68.9304 33.309 69.3148 32.4021L69.3968 32.3199C69.6142 32.3199 69.7119 32.459 69.7119 32.7054C69.6964 32.9339 69.6399 33.1577 69.5449 33.3659C69.4158 33.6291 69.2595 33.878 69.0785 34.1085C68.88 34.3823 68.6969 34.6672 68.5302 34.9616C67.6258 36.9398 66.4473 37.9036 64.9663 37.9036C64.3666 37.9013 63.7863 37.6902 63.3246 37.3063ZM61.9539 32.9898L62.4486 32.5759L62.3099 31.5047L62.3383 30.8158C62.3351 30.3351 62.2421 29.8592 62.0642 29.4128C61.9003 28.9198 61.7081 28.6702 61.4591 28.6702C61.2102 28.6702 60.7753 29.4128 60.1451 30.9264C59.5149 32.44 59.1557 33.6503 59.1557 34.6393C59.1484 34.9454 59.1856 35.2509 59.266 35.5462H59.3227C60.0348 35.1354 60.8856 34.2823 61.9539 32.9898Z" fill="#603813"/>
<path d="M85.1583 46.1351C83.7309 46.1351 83.0439 43.2754 83.0439 37.5559C83.0471 34.4747 83.3788 31.4026 84.0334 28.3921C84.8159 24.3103 86.1629 20.358 88.0353 16.6497C88.1489 16.4861 88.3008 16.353 88.4777 16.262C88.6547 16.1711 88.8512 16.1252 89.0499 16.1283C89.7905 16.1283 90.1497 16.4854 90.1497 17.228C89.8181 19.6405 89.3319 22.0291 88.6939 24.3789C87.4334 29.2737 86.8032 33.6186 86.8032 37.36C86.8557 37.2778 87.2664 36.2877 88.0353 34.3896C90.4238 27.404 93.3134 21.5055 96.704 16.694C97.7233 15.0345 98.9792 13.5334 100.432 12.2384C100.94 11.7872 101.593 11.5338 102.272 11.5243C102.82 11.5243 103.258 11.8561 103.614 12.5418C103.962 13.1925 104.141 13.9206 104.134 14.6589C104.134 15.7586 103.778 17.4113 103.038 19.6106C101.967 23.3291 101.143 27.1145 100.57 30.9421C100.049 33.3296 99.7829 35.766 99.7763 38.21C99.7846 39.6351 99.8761 41.0584 100.05 42.4728L100.076 42.8298C100.094 43.1226 100.041 43.4154 99.922 43.6834C99.803 43.9513 99.6211 44.1865 99.3919 44.3687C98.9733 44.7127 98.4519 44.9063 97.9109 44.9186L97.1956 44.8364C96.4015 44.7005 95.9887 42.6244 95.9887 38.6777C95.9887 34.358 97.0317 28.7491 99.1177 21.8162C99.4915 20.3263 100.02 18.8796 100.693 17.4997C101.303 16.3764 101.751 15.1721 102.023 13.9227L102.051 13.1801C102.023 12.9621 101.941 12.8641 101.806 12.8641C101.226 12.9378 100.621 13.2907 99.9906 13.9227C96.8059 17.4639 94.2481 21.525 92.4279 25.9305C92.1254 26.6193 90.8366 29.9752 88.5615 35.998C87.8746 37.578 87.3547 38.9115 86.9702 40.106L87.216 44.4256C87.1931 44.8165 87.05 45.1908 86.8064 45.4968C86.6511 45.6929 86.4558 45.8534 86.2334 45.9673C86.0111 46.0812 85.767 46.146 85.5176 46.1573L85.1583 46.1351Z" fill="#603813"/>
<path d="M104.96 38.3237C103.668 37.7739 103.038 36.5921 103.038 34.7783C103.038 33.3184 103.423 31.6973 104.163 29.8551C104.793 28.2751 105.509 27.5167 106.303 27.5167C106.933 27.5167 107.264 27.8327 107.264 28.4236C107.204 29.174 107.018 29.9089 106.715 30.5977L106.057 32.3578C105.747 33.386 105.554 34.446 105.48 35.5177C105.48 36.5352 105.644 37.0566 105.947 37.0566C106.413 37.0566 107.153 36.3425 108.196 34.9394C108.663 34.3139 109.093 33.6618 109.485 32.9866C109.538 32.4944 109.629 32.0073 109.759 31.5299C110.278 29.3263 111.128 27.8685 112.309 27.1565L112.693 27.0743C113.213 27.0743 113.462 27.3208 113.462 27.7885L113.405 28.035C112.32 30.2208 111.704 32.6106 111.597 35.05C111.597 36.314 112.006 36.946 112.857 36.946C113.487 36.946 114.174 36.5352 114.861 35.7105H114.943C115.513 35.0872 116.039 34.4252 116.519 33.7292C116.877 33.284 117.273 32.8697 117.7 32.4905C117.754 32.4905 117.807 32.5474 117.807 32.6548L117.782 32.7401C117.234 33.3437 116.739 33.9472 116.301 34.5255C114.574 36.8923 113.15 38.0741 112.075 38.0741C111.721 38.046 111.371 37.9716 111.036 37.8529C110.569 37.717 110.185 37.3031 109.854 36.6174C109.531 35.9586 109.363 35.2343 109.362 34.5002L109.391 33.9472L108.237 35.9285C107.415 37.5527 106.454 38.3775 105.386 38.3775L104.96 38.3237Z" fill="#603813"/>
<path d="M118.564 39.2875C118.073 38.8874 117.681 38.3787 117.419 37.8015C117.158 37.2242 117.033 36.5939 117.054 35.9601C117.038 33.3222 117.843 30.745 119.358 28.588C120.045 27.5705 120.892 27.0775 121.878 27.0775C123.028 27.0775 123.603 27.6821 123.605 28.8913C123.569 29.507 123.4 30.1074 123.111 30.6514C122.37 32.2314 121.466 33.0182 120.397 33.0182L119.849 32.9361C119.808 33.0215 119.788 33.116 119.792 33.211C119.516 33.9788 119.368 34.787 119.354 35.603C119.359 35.9436 119.387 36.2835 119.436 36.6205C119.454 36.8214 119.527 37.0133 119.649 37.1738C119.77 37.3344 119.935 37.457 120.123 37.5274C120.488 37.7193 120.89 37.8272 121.302 37.8434C122.124 37.8434 123.003 37.3758 123.908 36.4404C125.108 35.2609 126.125 33.907 126.923 32.4241C126.976 32.3756 127.044 32.3466 127.116 32.342C127.39 32.342 127.528 32.4241 127.528 32.6169L127.5 32.7812C124.072 37.3758 121.494 39.6572 119.767 39.6572C119.339 39.6502 118.922 39.522 118.564 39.2875ZM122.266 29.9373C122.676 29.2768 122.896 28.8092 122.896 28.5627C122.908 28.4879 122.902 28.4115 122.88 28.3391C122.859 28.2667 122.82 28.2002 122.769 28.1446C122.718 28.089 122.655 28.0457 122.585 28.018C122.515 27.9902 122.439 27.9788 122.364 27.9844C122.143 27.9844 121.897 28.1772 121.648 28.5627C121.344 29.0488 121.069 29.5532 120.826 30.0731C120.541 30.6616 120.32 31.2793 120.167 31.9154C120.921 31.6184 121.633 30.9548 122.266 29.9373Z" fill="#603813"/>
<path d="M128.08 41.9008C127.764 41.8471 127.503 41.4332 127.282 40.6621V40.4978C127.282 39.5088 127.998 38.4344 129.397 37.3063L129.614 37.1704L128.82 36.2066C127.367 34.7499 126.614 33.429 126.614 32.2472C126.615 31.9879 126.643 31.7293 126.699 31.4762C127.16 29.7085 128.215 28.1546 129.687 27.0775C130.246 26.5477 130.976 26.2351 131.744 26.1959C132.649 26.1959 133.09 26.692 133.09 27.7095C133.09 28.4237 132.775 29.359 132.144 30.4587C131.86 31.0005 131.49 31.4925 131.048 31.9154H130.938C130.953 31.7828 130.991 31.6536 131.048 31.5331C131.993 29.9531 132.444 28.8092 132.444 28.1203C132.444 27.4315 132.28 27.1313 132.006 27.1313C131.596 27.1313 131.13 27.5168 130.635 28.2594C129.51 29.8393 128.962 31.2013 128.962 32.3673C128.962 33.3564 129.538 34.595 130.689 36.1592V36.2129C131.457 35.581 132.264 35.0027 133.131 34.4276C133.997 33.8525 134.832 33.271 135.652 32.639L135.787 32.6106L135.869 32.7212L135.787 32.8571C134.11 34.0199 132.508 35.2864 130.988 36.649C131.565 37.6634 131.867 38.4628 131.867 39.0664C131.845 39.5042 131.738 39.9335 131.552 40.3303C131.309 40.8505 130.892 41.2688 130.374 41.5122C129.852 41.8035 129.268 41.964 128.672 41.9798C128.473 41.9638 128.275 41.9375 128.08 41.9008ZM130.575 39.3413C130.546 38.7684 130.345 38.2176 129.999 37.7613C129.888 37.815 129.806 37.8687 129.778 37.9541C129.75 38.0394 129.561 38.229 129.286 38.5576C128.738 39.2718 128.464 39.8216 128.464 40.2355C128.464 40.482 128.628 40.6211 128.93 40.6211C130.027 40.4978 130.575 40.0839 130.575 39.3413Z" fill="#603813"/>
<path d="M135.346 35.3282C135.346 32.026 136.197 28.0951 137.899 23.5827L134.99 23.7754C133.922 23.7754 133.374 23.7217 133.374 23.5827C133.372 23.5715 133.373 23.5601 133.377 23.5494C133.38 23.5388 133.386 23.529 133.394 23.5211C133.402 23.5131 133.412 23.5071 133.423 23.5035C133.433 23.5 133.445 23.4989 133.456 23.5005C135.026 23.0807 136.633 22.814 138.255 22.7042L138.995 20.8872C139.597 18.7416 140.313 17.642 141.16 17.642C141.708 17.642 141.957 17.9169 141.957 18.4667H142.039C142.018 19.5264 141.794 20.5722 141.381 21.5477L140.955 22.6473C142.928 22.6702 144.891 22.9388 146.797 23.4468C146.816 23.4454 146.834 23.4479 146.851 23.4542C146.868 23.4606 146.884 23.4705 146.896 23.4834C146.909 23.4963 146.919 23.5119 146.926 23.529C146.932 23.5462 146.934 23.5645 146.933 23.5827C146.933 23.7217 146.823 23.8039 146.618 23.8039C144.916 23.5047 143.191 23.3578 141.463 23.3646H140.722C138.75 28.3415 137.732 32.6043 137.732 36.1529C137.707 36.5384 137.678 37.1009 137.678 37.8846C137.678 40.0302 137.952 41.1014 138.472 41.1014C139.213 40.994 139.9 40.58 140.587 39.8374C141.766 38.4476 142.795 36.9361 143.656 35.3282C144.756 33.4006 145.468 32.4115 145.742 32.4115C145.959 32.4115 146.057 32.5221 146.057 32.7275L146.032 32.8634C145.299 33.8892 144.639 34.9652 144.056 36.0834C143.396 37.3911 142.615 38.6341 141.724 39.7963C141.306 40.4689 140.819 41.0959 140.272 41.667C140.022 41.9443 139.717 42.1658 139.377 42.3171C139.037 42.4685 138.668 42.5463 138.296 42.5455C136.336 42.5328 135.346 40.1502 135.346 35.3282Z" fill="#603813"/>
<path d="M145.136 39.5909C144.909 39.3855 144.772 39.098 144.755 38.7914C144.733 38.5636 144.723 38.3347 144.727 38.1057C144.788 36.4938 144.944 34.8868 145.193 33.2931C145.251 33.1244 145.278 32.9469 145.275 32.7686C145.695 29.4991 146.545 27.4367 147.824 26.5814L148.139 26.4993C148.663 26.4993 148.937 27.0207 148.937 28.0792C148.869 28.7357 148.764 29.3877 148.622 30.0321C148.54 30.3354 148.347 31.1602 148.045 32.5063C149.223 30.168 150.541 28.5185 152.022 27.5578C152.175 27.3779 152.392 27.2646 152.627 27.2419C152.705 27.2307 152.785 27.2379 152.859 27.2631C152.934 27.2883 153.002 27.3306 153.058 27.3868C153.114 27.4429 153.156 27.5113 153.18 27.5866C153.205 27.6618 153.212 27.7418 153.2 27.8201C153.114 28.4307 152.995 29.0362 152.844 29.6339C152.649 30.4736 152.53 31.3292 152.488 32.1903C152.488 32.5063 152.488 32.797 152.516 33.1004C152.514 33.3641 152.589 33.6226 152.734 33.843C152.786 33.9183 152.856 33.9799 152.937 34.0228C153.018 34.0656 153.108 34.0885 153.2 34.0895L153.805 34.0357C154.243 33.8967 154.93 33.4037 155.834 32.4937C155.998 32.3294 156.109 32.2472 156.15 32.2472C156.288 32.2472 156.37 32.3578 156.37 32.5632C156.367 32.5978 156.356 32.631 156.336 32.6598C156.317 32.6886 156.291 32.7119 156.26 32.7275C155.945 32.974 155.63 33.2489 155.274 33.5807C154.905 33.939 154.512 34.2695 154.095 34.5698C153.729 34.8698 153.276 35.0437 152.803 35.0659C151.379 35.0659 150.667 33.963 150.667 31.7922C150.672 30.8183 150.839 29.852 151.158 28.9324C150.072 30.0243 149.23 31.3366 148.691 32.7812L147.456 35.641L146.964 38.9147C146.772 39.6573 146.416 40.0143 145.839 40.0143C145.699 39.9986 145.563 39.9527 145.442 39.8796C145.32 39.8065 145.216 39.708 145.136 39.5909Z" fill="#603813"/>
<path d="M162.635 37.3063C162.281 36.9653 162.002 36.5551 161.813 36.1012C161.625 35.6473 161.531 35.1594 161.538 34.6678L161.566 34.3107L160.085 36.2067C159.291 37.3348 158.51 37.913 157.836 37.913C157.519 37.9137 157.206 37.8508 156.914 37.7282C156.623 37.6055 156.358 37.4256 156.137 37.1989C155.614 36.7312 155.34 36.0139 155.34 34.9869C155.34 33.6408 155.753 32.2378 156.518 30.7526C157.219 29.3631 158.316 28.2138 159.669 27.4505C159.939 27.3046 160.242 27.2296 160.549 27.2324C161.535 27.2324 162.247 28.0035 162.713 29.5708C162.94 28.9659 163.259 28.3999 163.659 27.8929C164.182 27.2324 164.73 26.9291 165.278 26.9291C165.827 26.9291 166.073 27.1756 166.073 27.6717C165.912 28.443 165.616 29.1794 165.196 29.8457C164.391 31.2141 163.947 32.7663 163.908 34.3549C163.908 35.6474 164.223 36.2793 164.758 36.2793C165.196 36.2793 165.704 36.0044 166.293 35.4262C167.472 34.3265 168.24 33.309 168.625 32.4021L168.707 32.3199C168.924 32.3199 169.022 32.459 169.022 32.7054C169.006 32.9339 168.95 33.1577 168.855 33.3659C168.726 33.6291 168.57 33.878 168.389 34.1085C168.19 34.3823 168.007 34.6672 167.84 34.9616C166.936 36.9398 165.757 37.9036 164.276 37.9036C163.677 37.9013 163.096 37.6902 162.635 37.3063ZM161.264 32.9898L161.752 32.5664L161.614 31.4952L161.642 30.8063C161.639 30.3256 161.546 29.8497 161.368 29.4033C161.204 28.9104 161.012 28.6607 160.763 28.6607C160.514 28.6607 160.079 29.4033 159.449 30.9169C158.819 32.4305 158.459 33.6408 158.459 34.6299C158.452 34.9359 158.489 35.2414 158.57 35.5368H158.626C159.345 35.1354 160.196 34.2823 161.264 32.9898Z" fill="#603813"/>
<path d="M3.09424 51.368C16.644 49.3393 30.282 47.971 43.9577 47.0863C57.6335 46.2015 71.3377 45.7749 85.045 45.8223C98.7523 45.8697 112.46 46.3784 126.123 47.4023C139.786 48.4261 153.421 49.8544 166.952 52C153.273 51.2953 139.628 50.5938 125.987 50.104C124.279 50.0408 122.573 49.9871 120.867 49.9428L115.746 49.7943C112.332 49.7037 108.921 49.6216 105.511 49.5478L100.394 49.4499L95.264 49.3835C91.8545 49.3424 88.4419 49.3045 85.0292 49.3045C71.3786 49.2382 57.7312 49.4309 44.0649 49.7848C30.3985 50.1388 16.7763 50.7707 3.09424 51.368Z" fill="url(#paint0_linear_74_314)"/>
<path d="M116.531 15.5027L98.1001 6.02284C99.5905 4.04026 101.731 2.64885 104.144 2.09382C106.557 1.53878 109.089 1.85575 111.292 2.98887C113.495 4.12198 115.228 5.99853 116.187 8.28778C117.145 10.577 117.267 13.1321 116.531 15.5027Z" fill="url(#paint1_linear_74_314)"/>
<path d="M39.9277 23.6774C46.586 18.6626 53.4302 13.9227 60.328 9.27757C62.0579 8.12103 63.769 6.96134 65.5462 5.82692C67.3368 4.66178 69.1962 3.60654 71.1142 2.66698C72.0989 2.18847 73.1099 1.76647 74.1424 1.403C75.1897 1.02569 76.2615 0.720564 77.3502 0.489776C79.5425 0.0551367 81.783 -0.0819619 84.0117 0.0821505C86.1972 0.2599 88.3592 0.657949 90.4651 1.27028C92.5249 1.87587 94.5419 2.61907 96.5026 3.49488C100.397 5.22021 104.065 7.28682 107.667 9.30286C114.915 13.3697 122.115 17.5345 129.154 22.009C121.45 18.8206 113.906 15.3225 106.413 11.7297C102.654 9.93168 98.9763 8.05468 95.2201 6.52843C93.372 5.75591 91.4776 5.09948 89.5482 4.56295C87.6604 4.02987 85.7245 3.68586 83.769 3.53596C81.8518 3.38895 79.9236 3.49519 78.034 3.85196C76.1263 4.23721 74.2695 4.84268 72.5007 5.65628C68.8769 7.26785 65.3886 9.52721 61.7869 11.6033C54.5867 15.7713 47.3486 19.8697 39.9277 23.6774Z" fill="url(#paint2_linear_74_314)"/>
</g>
<defs>
<linearGradient id="paint0_linear_74_314" x1="2.92723" y1="48.9127" x2="167.131" y2="48.9127" gradientUnits="userSpaceOnUse">
<stop stop-color="#8CC63F"/>
<stop offset="1" stop-color="#009245"/>
</linearGradient>
<linearGradient id="paint1_linear_74_314" x1="98.1001" y1="8.68036" x2="116.975" y2="8.68036" gradientUnits="userSpaceOnUse">
<stop stop-color="#FCEE21"/>
<stop offset="1" stop-color="#F15A24"/>
</linearGradient>
<linearGradient id="paint2_linear_74_314" x1="39.0076" y1="11.8371" x2="129.952" y2="11.8371" gradientUnits="userSpaceOnUse">
<stop stop-color="#8CC63F"/>
<stop offset="1" stop-color="#009245"/>
</linearGradient>
<clipPath id="clip0_74_314">
<rect width="169" height="52" fill="white"/>
</clipPath>
</defs>
</svg>
